<svg xmlns="http://www.w3.org/2000/svg" xmlns:xlink="http://www.w3.org/1999/xlink" viewBox="0 0 388 221.48"><defs><style>.cls-1,.cls-2{fill:none;}.cls-1{stroke:#161616;stroke-miterlimit:10;}.cls-3{fill:#fff;}.cls-4{fill:#ffc331;}.cls-5{clip-path:url(#clip-path);}.cls-6{clip-path:url(#clip-path-2);}.cls-7{clip-path:url(#clip-path-3);}</style><clipPath id="clip-path"><rect class="cls-1" x="336.2" y="2640.11" width="564.37" height="176.7"/></clipPath><clipPath id="clip-path-2"><rect class="cls-2" x="334.3" y="2817.81" width="566.27" height="176.7"/></clipPath><clipPath id="clip-path-3"><rect class="cls-2" x="331.93" y="2995.51" width="568.65" height="176.7"/></clipPath></defs><title>Logo_white_golden_coin</title><g id="Layer_2" data-name="Layer 2"><polygon class="cls-3" points="39.96 39.55 39.96 79.1 95.33 79.1 95.33 181.93 134.88 181.93 134.88 79.1 190.25 79.1 190.25 39.55 39.96 39.55"/><polygon class="cls-3" points="300.99 39.55 206.07 39.55 206.07 79.1 300.99 79.1 300.99 94.92 261.44 94.92 261.44 134.47 261.44 181.93 300.99 181.93 300.99 134.47 340.54 134.47 348.45 134.47 348.45 79.1 348.45 39.55 300.99 39.55"/><path class="cls-3" d="M150.7,94.92v87h39.55V158.2h15.82v23.73h39.55v-87Zm55.37,39.55H190.25V118.65h15.82Z"/><circle class="cls-4" cx="332.27" cy="166.47" r="15.46"/><g class="cls-5"><rect class="cls-1" x="-18.55" y="-215.66" width="2981.5" height="7619.44"/></g><rect class="cls-1" x="336.2" y="2640.11" width="564.37" height="176.7"/></g></svg>