<?xml version="1.0" encoding="utf-8"?>
<!-- Generator: Adobe Illustrator 25.2.1, SVG Export Plug-In . SVG Version: 6.00 Build 0)  -->
<svg version="1.1" id="Layer_1" xmlns="http://www.w3.org/2000/svg" xmlns:xlink="http://www.w3.org/1999/xlink" x="0px" y="0px"
	 viewBox="0 0 394.21 226.72" style="enable-background:new 0 0 394.21 226.72;" xml:space="preserve">
<style type="text/css">
	.st0{fill:#FFFFFF;}
	.st1{fill:#FFC433;}
</style>
<polygon class="st0" points="32.14,39.11 32.14,78.66 87.51,78.66 87.51,181.49 127.06,181.49 127.06,78.66 182.43,78.66 
	182.43,39.11 "/>
<polygon class="st0" points="293.17,39.11 198.25,39.11 198.25,78.66 293.17,78.66 293.17,94.48 253.62,94.48 253.62,134.03 
	253.62,181.49 293.17,181.49 293.17,134.03 332.72,134.03 340.63,134.03 340.63,78.66 340.63,39.11 "/>
<path class="st0" d="M142.88,94.48v87h39.55v-23.72h15.82v23.73h39.55v-87L142.88,94.48z M198.25,134.03h-15.82v-15.82h15.82
	L198.25,134.03z"/>
<circle class="st1" cx="324.45" cy="166.03" r="15.46"/>
</svg>
